<svg width="24" height="18" viewBox="0 0 24 18" fill="none" xmlns="http://www.w3.org/2000/svg">
<path d="M22.9023 2.81639C22.6406 1.7078 21.8695 0.834703 20.8905 0.538406C19.1159 0 12 0 12 0C12 0 4.88415 0 3.10953 0.538406C2.13049 0.83475 1.3594 1.7078 1.09769 2.81639C0.622192 4.82578 0.622192 9.01819 0.622192 9.01819C0.622192 9.01819 0.622192 13.2106 1.09769 15.22C1.3594 16.3286 2.13049 17.1653 3.10953 17.4616C4.88415 18 12 18 12 18C12 18 19.1158 18 20.8905 17.4616C21.8695 17.1653 22.6406 16.3286 22.9023 15.22C23.3778 13.2106 23.3778 9.01819 23.3778 9.01819C23.3778 9.01819 23.3778 4.82578 22.9023 2.81639ZM9.6727 12.8246V5.2118L15.6202 9.01828L9.6727 12.8246Z" fill="white"/>
</svg>
