<svg width="24" height="22" viewBox="0 0 24 22" fill="none" xmlns="http://www.w3.org/2000/svg">
<path d="M12.0057 5.60928C8.59853 5.60928 5.85032 8.01396 5.85032 10.9952C5.85032 13.9765 8.59853 16.3812 12.0057 16.3812C15.4128 16.3812 18.161 13.9765 18.161 10.9952C18.161 8.01396 15.4128 5.60928 12.0057 5.60928ZM12.0057 14.4968C9.80389 14.4968 8.00389 12.9265 8.00389 10.9952C8.00389 9.06396 9.79853 7.49365 12.0057 7.49365C14.2128 7.49365 16.0075 9.06396 16.0075 10.9952C16.0075 12.9265 14.2075 14.4968 12.0057 14.4968ZM19.8485 5.38896C19.8485 6.0874 19.2057 6.64522 18.4128 6.64522C17.6146 6.64522 16.9771 6.08271 16.9771 5.38896C16.9771 4.69521 17.62 4.13271 18.4128 4.13271C19.2057 4.13271 19.8485 4.69521 19.8485 5.38896ZM23.9253 6.66397C23.8342 4.98115 23.395 3.49053 21.986 2.2624C20.5825 1.03428 18.8789 0.649902 16.9557 0.565527C14.9735 0.46709 9.03246 0.46709 7.05032 0.565527C5.13246 0.645215 3.42889 1.02959 2.01997 2.25771C0.611039 3.48584 0.177111 4.97646 0.0806823 6.65928C-0.0318176 8.39365 -0.0318176 13.5921 0.0806823 15.3265C0.171754 17.0093 0.611039 18.4999 2.01997 19.728C3.42889 20.9562 5.12711 21.3405 7.05032 21.4249C9.03246 21.5233 14.9735 21.5233 16.9557 21.4249C18.8789 21.3452 20.5825 20.9608 21.986 19.728C23.3896 18.4999 23.8289 17.0093 23.9253 15.3265C24.0378 13.5921 24.0378 8.39834 23.9253 6.66397ZM21.3646 17.1874C20.9467 18.1062 20.1378 18.814 19.0825 19.1843C17.5021 19.7327 13.7521 19.6062 12.0057 19.6062C10.2592 19.6062 6.50389 19.728 4.92889 19.1843C3.87889 18.8187 3.06997 18.1108 2.64675 17.1874C2.01997 15.8046 2.16461 12.5233 2.16461 10.9952C2.16461 9.46709 2.02532 6.18115 2.64675 4.80303C3.06461 3.88428 3.87354 3.17646 4.92889 2.80615C6.50925 2.25771 10.2592 2.38428 12.0057 2.38428C13.7521 2.38428 17.5075 2.2624 19.0825 2.80615C20.1325 3.17178 20.9414 3.87959 21.3646 4.80303C21.9914 6.18584 21.8467 9.46709 21.8467 10.9952C21.8467 12.5233 21.9914 15.8093 21.3646 17.1874Z" fill="white"/>
</svg>
